<svg width="178" height="24" viewBox="0 0 178 24" fill="none" xmlns="http://www.w3.org/2000/svg">
<g clip-path="url(#clip0_3_1465)">
<path d="M32.9497 16.6772H40.3783V19.6825H29.3518V4.16931H32.9497V16.6772Z" fill="#6A6C6C"/>
<path d="M48.2512 13.7778H51.1719V16.4868C50.6428 16.6984 49.5846 16.8889 48.5899 16.8889C45.3729 16.8889 44.2936 15.2593 44.2936 11.9153C44.2936 8.74074 45.3094 6.87831 48.5475 6.87831C50.3465 6.87831 51.3624 7.44974 52.2089 8.50794L54.4311 6.45503C53.0766 4.50794 50.6851 3.91534 48.4629 3.91534C43.447 3.91534 40.8015 6.6455 40.8015 11.873C40.8015 17.0794 43.1719 19.8942 48.4206 19.8942C50.8333 19.8942 53.1825 19.2804 54.4735 18.3915V10.8783H48.2512V13.7778Z" fill="#6A6C6C"/>
<path d="M-0.00268555 12C-0.00268555 5.37566 5.37298 0 11.9973 0C18.6217 0 23.9973 5.37566 23.9973 12C23.9973 18.6243 18.6217 24 11.9973 24C5.37298 24 -0.00268555 18.6243 -0.00268555 12Z" fill="#BC1237"/>
<path d="M12.484 1.96826C12.357 1.96826 12.1242 1.96826 11.9972 1.96826C6.45227 1.9471 1.94434 6.45503 1.94434 12C1.94434 14.6878 2.98137 17.2064 4.88613 19.1111C6.7909 21.0159 9.30942 22.0529 11.9972 22.0529C14.6851 22.0529 17.2036 21.0159 19.1084 19.1111C21.0131 17.2064 22.0502 14.6878 22.0502 12V11.5344H21.648H14.8756V12.4656H21.0978C21.0978 12.4868 21.0978 12.5926 21.0978 12.5926C20.7592 17.3545 16.8015 21.1005 11.9972 21.1005C9.56338 21.1005 7.27767 20.1481 5.56338 18.4339C3.82793 16.7196 2.89672 14.4339 2.89672 12C2.89672 9.56614 3.8491 7.28043 5.56338 5.56614C7.27767 3.85186 9.56338 2.89948 11.9972 2.89948C12.1031 2.89948 12.357 2.89948 12.484 2.89948V1.96826ZM8.16656 9.60847C8.97079 9.60847 9.60571 8.97355 9.60571 8.16932C9.60571 7.38625 8.97079 6.73016 8.16656 6.73016C7.36232 6.73016 6.7274 7.36508 6.7274 8.16932C6.7274 8.95238 7.36232 9.60847 8.16656 9.60847ZM11.5105 6.73016V17.2487H14.8544V16.3175H12.484V6.73016H11.5105Z" fill="white"/>
<path fill-rule="evenodd" clip-rule="evenodd" d="M167.828 14.2434L170.601 13.8201C170.728 14.3492 170.96 14.7725 171.32 15.0476C171.68 15.3228 172.188 15.4497 172.844 15.4497C173.564 15.4497 174.093 15.3228 174.452 15.0476C174.685 14.8571 174.812 14.6243 174.812 14.3069C174.812 14.0952 174.749 13.9259 174.622 13.7778C174.474 13.6508 174.177 13.5238 173.691 13.418C171.468 12.9312 170.05 12.4868 169.458 12.0635C168.632 11.4921 168.209 10.709 168.209 9.71429C168.209 8.80424 168.569 8.04233 169.288 7.42858C170.008 6.81482 171.109 6.49736 172.611 6.49736C174.05 6.49736 175.109 6.73016 175.786 7.19577C176.484 7.66138 176.95 8.35979 177.225 9.26985L174.622 9.75662C174.516 9.3545 174.304 9.03704 173.987 8.8254C173.669 8.61376 173.246 8.50794 172.654 8.50794C171.934 8.50794 171.405 8.61376 171.087 8.80424C170.876 8.95239 170.77 9.14286 170.77 9.3545C170.77 9.54498 170.855 9.71429 171.045 9.86244C171.299 10.0529 172.146 10.3069 173.627 10.6455C175.109 10.9841 176.124 11.3862 176.717 11.873C177.288 12.3598 177.585 13.0582 177.585 13.9259C177.585 14.8783 177.183 15.7037 176.378 16.4021C175.574 17.1005 174.389 17.4392 172.823 17.4392C171.405 17.4392 170.283 17.1429 169.437 16.5714C168.611 16 168.082 15.2169 167.828 14.2434Z" fill="#393A39"/>
<path fill-rule="evenodd" clip-rule="evenodd" d="M141.5 6.77249H144.04V8.19048C144.95 7.08995 146.029 6.53969 147.299 6.53969C147.976 6.53969 148.548 6.68784 149.034 6.96297C149.521 7.2381 149.923 7.66138 150.241 8.21165C150.706 7.66138 151.193 7.2381 151.722 6.96297C152.251 6.68784 152.823 6.53969 153.415 6.53969C154.177 6.53969 154.833 6.68784 155.362 7.0053C155.892 7.32276 156.294 7.7672 156.548 8.38096C156.738 8.8254 156.823 9.54498 156.823 10.5397V17.2064H154.05V11.2381C154.05 10.2011 153.966 9.54498 153.775 9.22752C153.521 8.8254 153.119 8.63493 152.59 8.63493C152.209 8.63493 151.849 8.76191 151.489 8.99471C151.151 9.22752 150.897 9.58731 150.749 10.0318C150.601 10.4762 150.516 11.1958 150.516 12.1905V17.2064H147.743V11.4921C147.743 10.4762 147.701 9.82011 147.595 9.52381C147.489 9.22752 147.341 9.01588 147.13 8.86773C146.918 8.71958 146.643 8.65609 146.304 8.65609C145.881 8.65609 145.5 8.76191 145.161 8.99471C144.823 9.22752 144.569 9.54498 144.421 9.98942C144.273 10.4127 144.209 11.1323 144.209 12.1482V17.2275H141.437V6.77249H141.5Z" fill="#393A39"/>
<path fill-rule="evenodd" clip-rule="evenodd" d="M137.225 17.2064H134.452V6.77249H137.013V8.25397C137.458 7.55556 137.839 7.08995 138.198 6.87831C138.558 6.64551 138.96 6.53969 139.405 6.53969C140.04 6.53969 140.632 6.709 141.225 7.06879L140.378 9.48149C139.913 9.18519 139.489 9.03704 139.087 9.03704C138.706 9.03704 138.368 9.14286 138.114 9.3545C137.839 9.56614 137.627 9.94709 137.479 10.4974C137.331 11.0476 137.246 12.2116 137.246 13.9894V17.2064H137.225Z" fill="#393A39"/>
<path fill-rule="evenodd" clip-rule="evenodd" d="M122.897 17.2064H120.124V11.8942C120.124 10.7725 120.061 10.0318 119.955 9.71429C119.828 9.37567 119.638 9.1217 119.384 8.93122C119.13 8.74075 118.812 8.65609 118.431 8.65609C117.944 8.65609 117.521 8.78307 117.14 9.05821C116.759 9.31218 116.505 9.67196 116.357 10.0952C116.209 10.5185 116.146 11.3228 116.146 12.4868V17.2064H113.373V6.77249H115.934V8.2963C116.844 7.11112 117.987 6.51852 119.384 6.51852C119.997 6.51852 120.548 6.62434 121.056 6.85715C121.564 7.06879 121.944 7.34392 122.198 7.68255C122.452 8.02117 122.643 8.40212 122.749 8.84657C122.855 9.26985 122.897 9.90477 122.897 10.709V17.2064Z" fill="#393A39"/>
<path d="M111.595 6.77249H108.823V17.2064H111.595V6.77249Z" fill="#393A39"/>
<path d="M111.595 2.79366H108.823V5.3545H111.595V2.79366Z" fill="#393A39"/>
<path fill-rule="evenodd" clip-rule="evenodd" d="M97.6482 14.2434L100.421 13.8201C100.548 14.3492 100.78 14.7725 101.14 15.0476C101.5 15.3228 102.008 15.4497 102.664 15.4497C103.384 15.4497 103.913 15.3228 104.273 15.0476C104.505 14.8571 104.632 14.6243 104.632 14.3069C104.632 14.0952 104.569 13.9259 104.442 13.7778C104.315 13.6508 103.997 13.5238 103.511 13.418C101.288 12.9312 99.8704 12.4868 99.2778 12.0635C98.4524 11.4921 98.0291 10.709 98.0291 9.71429C98.0291 8.80424 98.3889 8.04233 99.1085 7.42858C99.8281 6.81482 100.929 6.49736 102.431 6.49736C103.87 6.49736 104.929 6.73016 105.606 7.19577C106.304 7.66138 106.77 8.35979 107.045 9.26985L104.442 9.75662C104.336 9.3545 104.124 9.03704 103.807 8.8254C103.489 8.61376 103.066 8.50794 102.474 8.50794C101.754 8.50794 101.225 8.61376 100.907 8.80424C100.696 8.95239 100.59 9.14286 100.59 9.3545C100.59 9.54498 100.675 9.71429 100.865 9.86244C101.119 10.0529 101.966 10.3069 103.447 10.6455C104.929 10.9841 105.944 11.3862 106.537 11.873C107.109 12.3598 107.405 13.0582 107.405 13.9259C107.405 14.8783 107.003 15.7037 106.198 16.4021C105.394 17.1005 104.209 17.4392 102.643 17.4392C101.225 17.4392 100.103 17.1429 99.2567 16.5714C98.4524 16 97.9022 15.2169 97.6482 14.2434Z" fill="#393A39"/>
<path d="M70.4736 2.17989C70.4736 0.973545 71.4472 0 72.6535 0H92.2726C93.4789 0 94.4525 0.973545 94.4525 2.17989V21.7989C94.4525 23.0053 93.4789 23.9788 92.2726 23.9788H72.6535C71.4472 23.9788 70.4736 23.0053 70.4736 21.7989V2.17989Z" fill="#E50B14"/>
<path d="M89.4365 12.2116C89.3095 16.8042 85.5423 20.4868 80.9286 20.4868C76.3148 20.4868 72.5476 16.8042 72.4207 12.2116H72.8439C72.8863 15.8095 75.8069 18.709 79.4048 18.709C83.0027 18.709 85.9233 15.8095 85.9656 12.2116H89.4365Z" fill="white"/>
<path d="M93.3942 12.2116C93.2673 18.1376 88.4207 22.9206 82.4736 22.9206C76.5054 22.9206 71.6588 18.1376 71.553 12.2116H71.9974C72.1456 17.037 76.0821 20.8889 80.9498 20.8889C85.7964 20.8889 89.754 17.0159 89.9022 12.2116H93.3942Z" fill="white"/>
<path d="M85.5211 12.2116C85.5 15.5767 82.7698 18.2857 79.4047 18.2857C76.0397 18.2857 73.3095 15.5767 73.2883 12.2116H73.7328C73.7328 12.254 73.7328 12.3175 73.7328 12.3598C73.7328 14.7725 75.701 16.7407 78.1137 16.7407C80.5264 16.7407 82.4947 14.7725 82.4947 12.3598C82.4947 12.3175 82.4947 12.254 82.4947 12.2116H85.5211Z" fill="white"/>
<path d="M79.426 11.7672C79.4472 8.40211 82.1774 5.69312 85.5424 5.69312C88.9075 5.69312 91.6377 8.40211 91.6588 11.7672H91.2144C91.2144 11.7249 91.2144 11.6614 91.2144 11.619C91.2144 9.20634 89.2461 7.23809 86.8334 7.23809C84.4207 7.23809 82.4525 9.20634 82.4525 11.619C82.4525 11.6614 82.4525 11.7249 82.4525 11.7672H79.426Z" fill="white"/>
<path d="M71.5317 11.7672C71.6587 5.84127 76.5053 1.0582 82.4524 1.0582C88.4206 1.0582 93.2672 5.84127 93.373 11.7672H92.9286C92.7804 6.94179 88.8439 3.08994 83.9762 3.08994C79.1296 3.08994 75.1719 6.96296 75.0238 11.7672H71.5317Z" fill="white"/>
<path d="M75.4895 11.7672C75.6165 7.1746 79.3837 3.49207 83.9974 3.49207C88.6112 3.49207 92.3784 7.1746 92.5054 11.7672H92.0821C92.0398 8.16931 89.1191 5.26984 85.5212 5.26984C81.9234 5.26984 79.0027 8.16931 78.9604 11.7672H75.4895Z" fill="white"/>
<path fill-rule="evenodd" clip-rule="evenodd" d="M167.172 15.8095C167.087 15.3651 167.045 14.6878 167.045 13.7778L167.066 10.5609C167.066 9.3545 166.939 8.52911 166.685 8.08466C166.452 7.64022 166.029 7.25926 165.415 6.98413C164.823 6.68784 163.892 6.53969 162.664 6.53969C161.31 6.53969 160.294 6.77249 159.595 7.25926C158.897 7.74604 158.431 8.48678 158.135 9.50265L160.632 9.9471C160.802 9.46032 161.034 9.1217 161.31 8.93122C161.585 8.74075 161.966 8.63493 162.452 8.63493C163.172 8.63493 163.68 8.74075 163.934 8.97355C164.188 9.20635 164.336 9.56614 164.336 10.0952V10.3704C163.828 10.582 162.939 10.8148 161.648 11.0476C160.696 11.2381 159.955 11.4497 159.447 11.7037C158.939 11.9365 158.558 12.2963 158.262 12.7619C157.987 13.2275 157.839 13.7355 157.839 14.328C157.839 15.2169 158.156 15.9577 158.77 16.5503C159.384 17.1429 160.251 17.418 161.31 17.418C161.923 17.418 162.495 17.3122 163.024 17.0794C163.553 16.8466 164.061 16.5079 164.548 16.0423C164.569 16.0847 164.59 16.2116 164.653 16.3598C164.759 16.7196 164.844 16.9947 164.929 17.1852H167.659C167.447 16.7196 167.278 16.254 167.172 15.8095ZM164.378 12.7619C164.378 13.418 164.336 13.8624 164.272 14.1164C164.167 14.4762 163.955 14.7725 163.616 15.0265C163.172 15.3439 162.685 15.5132 162.198 15.5132C161.754 15.5132 161.394 15.3651 161.098 15.09C160.802 14.8148 160.675 14.4762 160.675 14.0952C160.675 13.6931 160.865 13.3757 161.225 13.1217C161.458 12.9736 161.966 12.8042 162.728 12.6349C163.489 12.4656 164.061 12.3386 164.399 12.2116V12.7619H164.378Z" fill="#393A39"/>
<path fill-rule="evenodd" clip-rule="evenodd" d="M133.267 15.8095C133.183 15.3651 133.14 14.6878 133.14 13.7778L133.161 10.5609C133.161 9.3545 133.034 8.52911 132.78 8.08466C132.548 7.64022 132.124 7.25926 131.511 6.98413C130.918 6.68784 129.987 6.53969 128.759 6.53969C127.405 6.53969 126.389 6.77249 125.69 7.25926C124.992 7.74604 124.526 8.48678 124.23 9.50265L126.727 9.9471C126.897 9.46032 127.13 9.1217 127.405 8.93122C127.68 8.74075 128.061 8.63493 128.548 8.63493C129.267 8.63493 129.775 8.74075 130.029 8.97355C130.283 9.20635 130.431 9.56614 130.431 10.0952V10.3704C129.923 10.582 129.034 10.8148 127.743 11.0476C126.791 11.2381 126.05 11.4497 125.542 11.7037C125.034 11.9365 124.653 12.2963 124.357 12.7619C124.082 13.2275 123.934 13.7355 123.934 14.328C123.934 15.2169 124.251 15.9577 124.865 16.5503C125.479 17.1429 126.347 17.418 127.405 17.418C128.018 17.418 128.59 17.3122 129.119 17.0794C129.648 16.8466 130.156 16.5079 130.643 16.0423C130.664 16.0847 130.685 16.2116 130.749 16.3598C130.854 16.7196 130.939 16.9947 131.024 17.1852H133.754C133.521 16.7196 133.352 16.254 133.267 15.8095ZM130.452 12.7619C130.452 13.418 130.41 13.8624 130.347 14.1164C130.241 14.4762 130.029 14.7725 129.69 15.0265C129.246 15.3439 128.759 15.5132 128.272 15.5132C127.828 15.5132 127.468 15.3651 127.172 15.09C126.876 14.8148 126.749 14.4762 126.749 14.0952C126.749 13.6931 126.939 13.3757 127.299 13.1217C127.532 12.9736 128.04 12.8042 128.802 12.6349C129.563 12.4656 130.135 12.3386 130.474 12.2116V12.7619H130.452Z" fill="#393A39"/>
<path d="M62.6217 0H62.3254V24H62.6217V0Z" fill="#393A39"/>
</g>
<defs>
<clipPath id="clip0_3_1465">
<rect width="177.587" height="24" fill="white" transform="translate(-0.00268555)"/>
</clipPath>
</defs>
</svg>
